<svg viewBox="0 0 500 500" fill="none" xmlns="http://www.w3.org/2000/svg">
  <path fill="#fff" d="M0 0h500v500H0z"/>
  <path fill-rule="evenodd" clip-rule="evenodd" d="M245.325 106h-44.783c-38.294 0-80.37 17.965-99.753 58.15-12.292-34.039-48.222-37.348-69.496-16.074-20.73 20.729-11.82 77.533 42.076 69.023-2.27 6.43-10.373 60.987-6.146 34.039 4.227-26.947 50.585-78.478 107.79-78.478h46.302l24.01-66.66Zm-156.71 70.796c0 15.471-12.54 28.012-28.011 28.012-15.47 0-28.011-12.541-28.011-28.012 0-15.47 12.54-28.011 28.011-28.011 15.47 0 28.011 12.541 28.011 28.011Z" fill="#000" fill-opacity=".5"/>
  <path d="M256.879 172.66H448.27L479 106H283.494l-26.615 66.66ZM454.889 181.169l19.856-41.13v16.074l-19.856 41.13v-16.074Z" fill="#000" fill-opacity=".5"/>
  <path fill-rule="evenodd" clip-rule="evenodd" d="M444.015 190.152c-75.484-.788-277.039-2.364-277.039-2.364-50.586 0-86.989 44.913-90.298 99.753-3.31 54.841 43.494 105.427 98.335 105.899 54.84.473 93.607-39.712 111.099-79.897 17.493-40.185 69.497-79.897 157.903-79.897v-43.494ZM179.15 340.491c26.762 0 48.458-21.696 48.458-48.458 0-26.763-21.696-48.459-48.458-48.459-26.763 0-48.459 21.696-48.459 48.459 0 26.762 21.696 48.458 48.459 48.458Z" fill="#000" fill-opacity=".5"/>
  <path clip-rule="evenodd" d="M245.325 106h-44.783c-38.294 0-80.37 17.965-99.753 58.15-12.292-34.039-48.222-37.348-69.496-16.074-20.73 20.729-11.82 77.533 42.076 69.023-2.27 6.43-10.373 60.987-6.146 34.039 4.227-26.947 50.585-78.478 107.79-78.478h46.302l24.01-66.66Zm-156.71 70.796c0 15.471-12.54 28.012-28.011 28.012-15.47 0-28.011-12.541-28.011-28.012 0-15.47 12.54-28.011 28.011-28.011 15.47 0 28.011 12.541 28.011 28.011Z" stroke="#000"/>
  <path d="M256.879 172.66H448.27L479 106H283.494l-26.615 66.66ZM454.889 181.169l19.856-41.13v16.074l-19.856 41.13v-16.074Z" stroke="#000"/>
  <path clip-rule="evenodd" d="M444.015 190.152c-75.484-.788-277.039-2.364-277.039-2.364-50.586 0-86.989 44.913-90.298 99.753-3.31 54.841 43.494 105.427 98.335 105.899 54.84.473 93.607-39.712 111.099-79.897 17.493-40.185 69.497-79.897 157.903-79.897v-43.494ZM179.15 340.491c26.762 0 48.458-21.696 48.458-48.458 0-26.763-21.696-48.459-48.458-48.459-26.763 0-48.459 21.696-48.459 48.459 0 26.762 21.696 48.458 48.459 48.458Z" stroke="#000"/>
</svg>
