<svg width="500" height="500" viewBox="0 0 500 500" fill="none" xmlns="http://www.w3.org/2000/svg">
<rect width="500" height="500" fill="white"/>
<path fill-rule="evenodd" clip-rule="evenodd" d="M245.325 106H200.542C162.248 106 120.172 123.965 100.789 164.15C88.497 130.111 52.567 126.802 31.2927 148.076C10.5637 168.805 19.4736 225.609 73.3686 217.099C71.0994 223.529 62.9957 278.086 67.2227 251.138C71.4497 224.191 117.808 172.66 175.013 172.66H221.315L225.941 159.816L243.374 111.416L245.325 106ZM256.879 172.66H448.27L479 106H283.494L278.498 118.513L259.174 166.912L256.879 172.66ZM454.889 181.169L474.745 140.039V156.113L454.889 197.243V181.169ZM444.015 190.152C368.531 189.364 166.976 187.788 166.976 187.788C116.39 187.788 79.9873 232.701 76.678 287.541C73.3686 342.382 120.172 392.968 175.013 393.44C229.853 393.913 268.62 353.728 286.112 313.543C303.605 273.358 355.609 233.646 444.015 233.646V190.152ZM88.6153 176.796C88.6153 192.267 76.0742 204.808 60.604 204.808C45.1338 204.808 32.5928 192.267 32.5928 176.796C32.5928 161.326 45.1338 148.785 60.604 148.785C76.0742 148.785 88.6153 161.326 88.6153 176.796ZM179.15 340.491C205.912 340.491 227.608 318.795 227.608 292.033C227.608 265.27 205.912 243.574 179.15 243.574C152.387 243.574 130.691 265.27 130.691 292.033C130.691 318.795 152.387 340.491 179.15 340.491Z" fill="black" fill-opacity="0.5"/>
<path d="M245.325 106L245.796 106.169L246.037 105.5H245.325V106ZM100.789 164.15L100.319 164.32L100.723 165.438L101.239 164.367L100.789 164.15ZM31.2927 148.076L30.9391 147.722L30.9391 147.722L31.2927 148.076ZM73.3686 217.099L73.8401 217.266L74.1193 216.475L73.2906 216.606L73.3686 217.099ZM67.2227 251.138L66.7287 251.061L66.7287 251.061L67.2227 251.138ZM221.315 172.66V173.16H221.666L221.785 172.829L221.315 172.66ZM225.941 159.816L225.471 159.646L225.471 159.646L225.941 159.816ZM243.374 111.416L243.845 111.586L243.845 111.586L243.374 111.416ZM448.27 172.66V173.16H448.59L448.724 172.869L448.27 172.66ZM256.879 172.66L256.415 172.474L256.141 173.16H256.879V172.66ZM479 106L479.454 106.209L479.781 105.5H479V106ZM283.494 106V105.5H283.156L283.03 105.815L283.494 106ZM278.498 118.513L278.963 118.699L278.963 118.699L278.498 118.513ZM259.174 166.912L259.638 167.098L259.638 167.098L259.174 166.912ZM474.745 140.039H475.245L474.295 139.822L474.745 140.039ZM454.889 181.169L454.439 180.952L454.389 181.055V181.169H454.889ZM474.745 156.113L475.195 156.33L475.245 156.227V156.113H474.745ZM454.889 197.243H454.389L455.339 197.461L454.889 197.243ZM166.976 187.788L166.98 187.288H166.976V187.788ZM444.015 190.152H444.515V189.657L444.021 189.652L444.015 190.152ZM76.678 287.541L76.1789 287.511L76.1789 287.511L76.678 287.541ZM175.013 393.44L175.009 393.94L175.009 393.94L175.013 393.44ZM286.112 313.543L286.571 313.743L286.571 313.743L286.112 313.543ZM444.015 233.646V234.146H444.515V233.646H444.015ZM200.542 106.5H245.325V105.5H200.542V106.5ZM101.239 164.367C120.517 124.401 162.384 106.5 200.542 106.5V105.5C162.113 105.5 119.827 123.529 100.339 163.933L101.239 164.367ZM31.6462 148.43C42.1754 137.9 56.3133 133.471 69.3188 135.862C82.3094 138.251 94.2285 147.455 100.319 164.32L101.259 163.98C95.0574 146.806 82.8656 137.336 69.4996 134.879C56.1485 132.424 41.6843 136.977 30.9391 147.722L31.6462 148.43ZM73.2906 216.606C59.9055 218.719 49.3594 216.771 41.3833 212.382C33.4063 207.991 27.9593 201.137 24.81 193.364C18.4971 177.785 21.4503 158.625 31.6462 148.43L30.9391 147.722C20.4061 158.255 17.4497 177.863 23.8832 193.74C27.1072 201.696 32.6974 208.743 40.9012 213.258C49.1059 217.773 59.8842 219.735 73.4466 217.593L73.2906 216.606ZM66.7287 251.061C66.2004 254.429 65.865 256.522 65.6868 257.595C65.6423 257.863 65.6078 258.066 65.5827 258.208C65.5701 258.28 65.5601 258.335 65.5525 258.375C65.5439 258.42 65.5407 258.433 65.5415 258.43C65.5416 258.43 65.5449 258.417 65.551 258.399C65.5547 258.389 65.5668 258.36 65.5754 258.342C65.5953 258.306 65.6945 258.188 65.787 258.125C66.0411 258.067 66.4034 258.244 66.4821 258.372C66.4997 258.421 66.5161 258.496 66.5188 258.519C66.5198 258.532 66.5207 258.553 66.5208 258.561C66.5208 258.566 66.5206 258.575 66.5205 258.578C66.5201 258.588 66.5201 258.582 66.5252 258.538C66.5338 258.466 66.5506 258.34 66.5757 258.162C66.7757 256.742 67.4626 252.252 68.3532 246.715C69.2436 241.179 70.3366 234.602 71.3486 229.009C72.3649 223.392 73.2896 218.826 73.8401 217.266L72.8971 216.933C72.313 218.588 71.3738 223.253 70.3645 228.831C69.3509 234.433 68.2567 241.017 67.3659 246.556C66.4752 252.094 65.787 256.592 65.5855 258.023C65.5604 258.201 65.5422 258.336 65.5322 258.42C65.528 258.456 65.5227 258.502 65.5213 258.537C65.521 258.544 65.5197 258.574 65.523 258.61C65.5258 258.635 65.5424 258.71 65.5604 258.76C65.6393 258.889 66.002 259.066 66.2564 259.008C66.3493 258.944 66.4489 258.826 66.4695 258.789C66.4785 258.77 66.4912 258.74 66.4957 258.727C66.5031 258.706 66.508 258.687 66.51 258.679C66.5322 258.593 66.5868 258.279 66.6733 257.758C66.8522 256.681 67.1883 254.584 67.7167 251.216L66.7287 251.061ZM175.013 172.16C146.26 172.16 120.26 185.108 100.929 201.412C91.2614 209.565 83.2512 218.567 77.3897 227.227C71.5333 235.881 67.8012 244.224 66.7287 251.061L67.7167 251.216C68.7577 244.579 72.4056 236.376 78.2179 227.788C84.0252 219.207 91.9725 210.274 101.574 202.176C120.78 185.977 146.561 173.16 175.013 173.16V172.16ZM221.315 172.16H175.013V173.16H221.315V172.16ZM225.471 159.646L220.844 172.49L221.785 172.829L226.411 159.985L225.471 159.646ZM242.904 111.247L225.471 159.646L226.411 159.985L243.845 111.586L242.904 111.247ZM244.855 105.831L242.904 111.247L243.845 111.586L245.796 106.169L244.855 105.831ZM448.27 172.16H256.879V173.16H448.27V172.16ZM478.546 105.791L447.816 172.45L448.724 172.869L479.454 106.209L478.546 105.791ZM283.494 106.5H479V105.5H283.494V106.5ZM278.963 118.699L283.959 106.185L283.03 105.815L278.034 118.328L278.963 118.699ZM259.638 167.098L278.963 118.699L278.034 118.328L258.71 166.727L259.638 167.098ZM257.344 172.845L259.638 167.098L258.71 166.727L256.415 172.474L257.344 172.845ZM474.295 139.822L454.439 180.952L455.339 181.387L475.195 140.256L474.295 139.822ZM475.245 156.113V140.039H474.245V156.113H475.245ZM455.339 197.461L475.195 156.33L474.295 155.896L454.439 197.026L455.339 197.461ZM454.389 181.169V197.243H455.389V181.169H454.389ZM166.976 187.788C166.972 188.288 166.973 188.288 166.974 188.288C166.976 188.288 166.978 188.288 166.981 188.288C166.987 188.288 166.996 188.288 167.009 188.288C167.033 188.289 167.07 188.289 167.118 188.289C167.215 188.29 167.361 188.291 167.552 188.293C167.936 188.296 168.507 188.3 169.254 188.306C170.749 188.318 172.951 188.335 175.78 188.357C181.439 188.402 189.607 188.467 199.644 188.547C219.719 188.707 247.273 188.928 277.185 189.175C337.009 189.667 406.269 190.258 444.01 190.652L444.021 189.652C406.278 189.258 337.017 188.667 277.193 188.175C247.281 187.928 219.728 187.707 199.652 187.547C189.615 187.467 181.447 187.402 175.788 187.357C172.958 187.335 170.756 187.318 169.262 187.306C168.514 187.3 167.944 187.296 167.56 187.293C167.368 187.291 167.223 187.29 167.126 187.289C167.078 187.289 167.041 187.289 167.017 187.288C167.004 187.288 166.995 187.288 166.989 187.288C166.986 187.288 166.984 187.288 166.982 187.288C166.981 187.288 166.98 187.288 166.976 187.788ZM77.1771 287.571C80.4761 232.902 116.738 188.288 166.976 188.288V187.288C116.042 187.288 79.4986 232.499 76.1789 287.511L77.1771 287.571ZM175.017 392.94C120.466 392.47 73.8848 342.129 77.1771 287.571L76.1789 287.511C72.8525 342.634 119.879 393.465 175.009 393.94L175.017 392.94ZM285.654 313.344C268.208 353.423 229.584 393.411 175.017 392.94L175.009 393.94C230.123 394.415 269.033 354.033 286.571 313.743L285.654 313.344ZM444.015 233.146C355.462 233.146 303.244 272.933 285.654 313.344L286.571 313.743C303.965 273.784 355.756 234.146 444.015 234.146V233.146ZM443.515 190.152V233.646H444.515V190.152H443.515ZM60.604 205.308C76.3503 205.308 89.1153 192.543 89.1153 176.796H88.1153C88.1153 191.99 75.7981 204.308 60.604 204.308V205.308ZM32.0928 176.796C32.0928 192.543 44.8577 205.308 60.604 205.308V204.308C45.41 204.308 33.0928 191.99 33.0928 176.796H32.0928ZM60.604 148.285C44.8577 148.285 32.0928 161.05 32.0928 176.796H33.0928C33.0928 161.602 45.41 149.285 60.604 149.285V148.285ZM89.1153 176.796C89.1153 161.05 76.3503 148.285 60.604 148.285V149.285C75.7981 149.285 88.1153 161.602 88.1153 176.796H89.1153ZM227.108 292.033C227.108 318.519 205.636 339.991 179.15 339.991V340.991C206.188 340.991 228.108 319.071 228.108 292.033H227.108ZM179.15 244.074C205.636 244.074 227.108 265.546 227.108 292.033H228.108C228.108 264.994 206.188 243.074 179.15 243.074V244.074ZM131.191 292.033C131.191 265.546 152.663 244.074 179.15 244.074V243.074C152.111 243.074 130.191 264.994 130.191 292.033H131.191ZM179.15 339.991C152.663 339.991 131.191 318.519 131.191 292.033H130.191C130.191 319.071 152.111 340.991 179.15 340.991V339.991Z" fill="black"/>
</svg>
