<svg width="460" height="289" viewBox="0 0 460 289" fill="none" xmlns="http://www.w3.org/2000/svg">
<path fill-rule="evenodd" clip-rule="evenodd" d="M225.325 1H180.542C142.248 1 100.172 18.965 80.7889 59.1499C68.497 25.111 32.567 21.8016 11.2927 43.076C-9.4363 63.8049 -0.526452 120.609 53.3686 112.099C51.0994 118.529 42.9956 173.086 47.2227 146.138C51.4497 119.191 97.8084 67.6597 155.013 67.6597H201.315L205.941 54.8156L223.374 6.4164L225.325 1ZM236.879 67.6597H428.27L459 1H263.494L258.498 13.5133L239.174 61.9125L236.879 67.6597ZM434.889 76.1694L454.745 35.039V51.113L434.889 92.2434V76.1694ZM424.015 85.152C348.531 84.364 146.976 82.7881 146.976 82.7881C96.3901 82.7881 59.9873 127.701 56.678 182.541C53.3686 237.382 100.172 287.968 155.013 288.44C209.853 288.913 248.62 248.728 266.112 208.543C283.605 168.358 335.609 128.646 424.015 128.646V85.152ZM68.6153 71.7964C68.6153 87.2666 56.0742 99.8076 40.604 99.8076C25.1338 99.8076 12.5928 87.2666 12.5928 71.7964C12.5928 56.3262 25.1338 43.7851 40.604 43.7851C56.0742 43.7851 68.6153 56.3262 68.6153 71.7964ZM159.15 235.491C185.912 235.491 207.608 213.795 207.608 187.033C207.608 160.27 185.912 138.574 159.15 138.574C132.387 138.574 110.691 160.27 110.691 187.033C110.691 213.795 132.387 235.491 159.15 235.491Z" fill="black" fill-opacity="0.5"/>
<path d="M225.325 1L225.796 1.16944L226.037 0.5H225.325V1ZM80.7889 59.1499L80.3186 59.3198L80.7226 60.4384L81.2393 59.3672L80.7889 59.1499ZM11.2927 43.076L10.9391 42.7224L10.9391 42.7224L11.2927 43.076ZM53.3686 112.099L53.8401 112.266L54.1193 111.475L53.2906 111.606L53.3686 112.099ZM47.2227 146.138L46.7287 146.061L46.7287 146.061L47.2227 146.138ZM201.315 67.6597V68.1597H201.666L201.785 67.8291L201.315 67.6597ZM205.941 54.8156L205.471 54.6462L205.471 54.6462L205.941 54.8156ZM223.374 6.4164L223.845 6.58585L223.845 6.58585L223.374 6.4164ZM428.27 67.6597V68.1597H428.59L428.724 67.869L428.27 67.6597ZM236.879 67.6597L236.415 67.4743L236.141 68.1597H236.879V67.6597ZM459 1L459.454 1.20932L459.781 0.5H459V1ZM263.494 1V0.5H263.156L263.03 0.814598L263.494 1ZM258.498 13.5133L258.963 13.6987L258.963 13.6987L258.498 13.5133ZM239.174 61.9125L239.638 62.0979L239.638 62.0979L239.174 61.9125ZM454.745 35.039H455.245L454.295 34.8216L454.745 35.039ZM434.889 76.1694L434.439 75.9521L434.389 76.0551V76.1694H434.889ZM454.745 51.113L455.195 51.3303L455.245 51.2273V51.113H454.745ZM434.889 92.2434H434.389L435.339 92.4608L434.889 92.2434ZM146.976 82.7881L146.98 82.2881H146.976V82.7881ZM424.015 85.152H424.515V84.6571L424.021 84.652L424.015 85.152ZM56.678 182.541L56.1789 182.511L56.1789 182.511L56.678 182.541ZM155.013 288.44L155.009 288.94L155.009 288.94L155.013 288.44ZM266.112 208.543L266.571 208.743L266.571 208.743L266.112 208.543ZM424.015 128.646V129.146H424.515V128.646H424.015ZM180.542 1.5H225.325V0.5H180.542V1.5ZM81.2393 59.3672C100.517 19.4008 142.384 1.5 180.542 1.5V0.5C142.113 0.5 99.8273 18.5293 80.3386 58.9327L81.2393 59.3672ZM11.6462 43.4295C22.1754 32.9004 36.3133 28.4711 49.3188 30.8622C62.3094 33.2506 74.2285 42.4548 80.3186 59.3198L81.2592 58.9801C75.0574 41.8061 62.8656 32.3361 49.4996 29.8787C36.1485 27.424 21.6843 31.9772 10.9391 42.7224L11.6462 43.4295ZM53.2906 111.606C39.9055 113.719 29.3594 111.771 21.3833 107.382C13.4063 102.991 7.95929 96.1365 4.81003 88.3645C-1.50294 72.7847 1.45027 53.6255 11.6462 43.4295L10.9391 42.7224C0.406089 53.2554 -2.55025 72.8628 3.88323 88.74C7.10719 96.6964 12.6974 103.743 20.9012 108.258C29.1059 112.773 39.8842 114.735 53.4466 112.593L53.2906 111.606ZM46.7287 146.061C46.2004 149.429 45.865 151.522 45.6868 152.595C45.6423 152.863 45.6078 153.066 45.5827 153.208C45.5701 153.28 45.5601 153.335 45.5525 153.375C45.5439 153.42 45.5407 153.433 45.5415 153.43C45.5416 153.43 45.5449 153.417 45.551 153.399C45.5547 153.389 45.5668 153.36 45.5754 153.342C45.5953 153.306 45.6945 153.188 45.787 153.125C46.0411 153.067 46.4034 153.244 46.4821 153.372C46.4997 153.421 46.5161 153.496 46.5188 153.519C46.5198 153.532 46.5207 153.553 46.5208 153.561C46.5208 153.566 46.5206 153.575 46.5205 153.578C46.5201 153.588 46.5201 153.582 46.5252 153.538C46.5338 153.466 46.5506 153.34 46.5757 153.162C46.7757 151.742 47.4626 147.252 48.3532 141.715C49.2436 136.179 50.3366 129.602 51.3486 124.009C52.3649 118.392 53.2896 113.826 53.8401 112.266L52.8971 111.933C52.313 113.588 51.3738 118.253 50.3645 123.831C49.3509 129.433 48.2567 136.017 47.3659 141.556C46.4752 147.094 45.787 151.592 45.5855 153.023C45.5604 153.201 45.5422 153.336 45.5322 153.42C45.528 153.456 45.5227 153.502 45.5213 153.537C45.521 153.544 45.5197 153.574 45.523 153.61C45.5258 153.635 45.5424 153.71 45.5604 153.76C45.6393 153.889 46.002 154.066 46.2564 154.008C46.3493 153.944 46.4489 153.826 46.4695 153.789C46.4785 153.77 46.4912 153.74 46.4957 153.727C46.5031 153.706 46.508 153.687 46.51 153.679C46.5322 153.593 46.5868 153.279 46.6733 152.758C46.8522 151.681 47.1883 149.584 47.7167 146.216L46.7287 146.061ZM155.013 67.1597C126.26 67.1597 100.26 80.108 80.9289 96.4116C71.2614 104.565 63.2512 113.567 57.3897 122.227C51.5333 130.881 47.8012 139.224 46.7287 146.061L47.7167 146.216C48.7577 139.579 52.4056 131.376 58.2179 122.788C64.0252 114.207 71.9725 105.274 81.5736 97.176C100.78 80.977 126.561 68.1597 155.013 68.1597V67.1597ZM201.315 67.1597H155.013V68.1597H201.315V67.1597ZM205.471 54.6462L200.844 67.4903L201.785 67.8291L206.411 54.985L205.471 54.6462ZM222.904 6.24696L205.471 54.6462L206.411 54.985L223.845 6.58585L222.904 6.24696ZM224.855 0.830559L222.904 6.24696L223.845 6.58585L225.796 1.16944L224.855 0.830559ZM428.27 67.1597H236.879V68.1597H428.27V67.1597ZM458.546 0.790675L427.816 67.4504L428.724 67.869L459.454 1.20932L458.546 0.790675ZM263.494 1.5H459V0.5H263.494V1.5ZM258.963 13.6987L263.959 1.1854L263.03 0.814598L258.034 13.3279L258.963 13.6987ZM239.638 62.0979L258.963 13.6987L258.034 13.3279L238.71 61.7271L239.638 62.0979ZM237.344 67.8451L239.638 62.0979L238.71 61.7271L236.415 67.4743L237.344 67.8451ZM454.295 34.8216L434.439 75.9521L435.339 76.3868L455.195 35.2564L454.295 34.8216ZM455.245 51.113V35.039H454.245V51.113H455.245ZM435.339 92.4608L455.195 51.3303L454.295 50.8956L434.439 92.026L435.339 92.4608ZM434.389 76.1694V92.2434H435.389V76.1694H434.389ZM146.976 82.7881C146.972 83.2881 146.973 83.2881 146.974 83.2881C146.976 83.2882 146.978 83.2882 146.981 83.2882C146.987 83.2882 146.996 83.2883 147.009 83.2884C147.033 83.2886 147.07 83.2889 147.118 83.2893C147.215 83.29 147.361 83.2912 147.552 83.2927C147.936 83.2957 148.507 83.3001 149.254 83.306C150.749 83.3177 152.951 83.3351 155.78 83.3574C161.439 83.402 169.607 83.4666 179.644 83.5467C199.719 83.7067 227.273 83.9283 257.185 84.1746C317.009 84.667 386.269 85.258 424.01 85.6519L424.021 84.652C386.278 84.258 317.017 83.6671 257.193 83.1746C227.281 82.9284 199.728 82.7067 179.652 82.5467C169.615 82.4667 161.447 82.402 155.788 82.3574C152.958 82.3351 150.756 82.3178 149.262 82.306C148.514 82.3002 147.944 82.2957 147.56 82.2927C147.368 82.2912 147.223 82.2901 147.126 82.2893C147.078 82.2889 147.041 82.2886 147.017 82.2884C147.004 82.2883 146.995 82.2883 146.989 82.2882C146.986 82.2882 146.984 82.2882 146.982 82.2882C146.981 82.2882 146.98 82.2882 146.976 82.7881ZM57.1771 182.571C60.4761 127.902 96.7381 83.2881 146.976 83.2881V82.2881C96.0422 82.2881 59.4986 127.499 56.1789 182.511L57.1771 182.571ZM155.017 287.94C100.466 287.47 53.8848 237.129 57.1771 182.571L56.1789 182.511C52.8525 237.634 99.8786 288.465 155.009 288.94L155.017 287.94ZM265.654 208.344C248.208 248.423 209.584 288.411 155.017 287.94L155.009 288.94C210.123 289.415 249.033 249.033 266.571 208.743L265.654 208.344ZM424.015 128.146C335.462 128.146 283.244 167.933 265.654 208.344L266.571 208.743C283.965 168.784 335.756 129.146 424.015 129.146V128.146ZM423.515 85.152V128.646H424.515V85.152H423.515ZM40.604 100.308C56.3503 100.308 69.1153 87.5427 69.1153 71.7964H68.1153C68.1153 86.9904 55.7981 99.3076 40.604 99.3076V100.308ZM12.0928 71.7964C12.0928 87.5427 24.8577 100.308 40.604 100.308V99.3076C25.41 99.3076 13.0928 86.9904 13.0928 71.7964H12.0928ZM40.604 43.2851C24.8577 43.2851 12.0928 56.05 12.0928 71.7964H13.0928C13.0928 56.6023 25.41 44.2851 40.604 44.2851V43.2851ZM69.1153 71.7964C69.1153 56.05 56.3503 43.2851 40.604 43.2851V44.2851C55.7981 44.2851 68.1153 56.6023 68.1153 71.7964H69.1153ZM207.108 187.033C207.108 213.519 185.636 234.991 159.15 234.991V235.991C186.188 235.991 208.108 214.071 208.108 187.033H207.108ZM159.15 139.074C185.636 139.074 207.108 160.546 207.108 187.033H208.108C208.108 159.994 186.188 138.074 159.15 138.074V139.074ZM111.191 187.033C111.191 160.546 132.663 139.074 159.15 139.074V138.074C132.111 138.074 110.191 159.994 110.191 187.033H111.191ZM159.15 234.991C132.663 234.991 111.191 213.519 111.191 187.033H110.191C110.191 214.071 132.111 235.991 159.15 235.991V234.991Z" fill="black"/>
</svg>
